<?xml version="1.0" encoding="UTF-8"?>
<svg width="24px" height="24px" viewBox="0 0 24 24" version="1.1" xmlns="http://www.w3.org/2000/svg" xmlns:xlink="http://www.w3.org/1999/xlink">
    <title>icon / 印鑑未入力</title>
    <defs>
        <path d="M0,8 C0,12.418 3.582,16 8,16 L8,16 C12.418,16 16,12.418 16,8 L16,8 C16,3.582 12.418,0 8,0 L8,0 C3.582,0 0,3.582 0,8 L0,8 Z" id="path-1"></path>
    </defs>
    <g id="icon-/-印鑑未入力" stroke="none" stroke-width="1" fill="none" fill-rule="evenodd">
        <g id="Group-3" transform="translate(4.000000, 4.000000)">
            <mask id="mask-2" fill="white">
                <use xlink:href="#path-1"></use>
            </mask>
            <g id="Clip-2"></g>
            <path d="M8,16 C12.418,16 16,12.418 16,8 C16,3.582 12.418,0 8,0 C3.582,0 0,3.582 0,8 C0,12.418 3.582,16 8,16 Z" id="Stroke-1" stroke-opacity="0.38" stroke="#000000" stroke-width="2" stroke-dasharray="1,1" mask="url(#mask-2)"></path>
        </g>
    </g>
</svg>